<svg xmlns="http://www.w3.org/2000/svg" viewBox="0 0 512 512" width="512" height="512">
  <!-- Background Circle -->
  <circle cx="256" cy="256" r="256" fill="#ffffff"/>
  
  <!-- Chart Background -->
  <rect x="96" y="128" width="320" height="256" rx="24" ry="24" fill="#4F46E5" opacity="0.1"/>
  
  <!-- Main Icon Elements -->
  <g fill="#4F46E5">
    <!-- Dollar Symbol -->
    <path d="M256 96c-17.7 0-32 14.3-32 32v32h64v-32c0-17.7-14.3-32-32-32zm0 320c17.7 0 32-14.3 32-32v-32h-64v32c0 17.7 14.3 32 32 32z"/>
    <rect x="224" y="192" width="64" height="128" rx="16" ry="16"/>
    
    <!-- Chart Bars -->
    <rect x="128" y="272" width="32" height="80" rx="8" ry="8"/>
    <rect x="184" y="240" width="32" height="112" rx="8" ry="8"/>
    <rect x="296" y="208" width="32" height="144" rx="8" ry="8"/>
    <rect x="352" y="192" width="32" height="160" rx="8" ry="8"/>
    
    <!-- Connecting Line -->
    <path d="M144 272c0-6.6 5.4-12 12-12h232c6.6 0 12 5.4 12 12s-5.4 12-12 12H156c-6.6 0-12-5.4-12-12z" opacity="0.7"/>
  </g>
</svg>
